<?xml version="1.0" encoding="UTF-8"?>
<svg id="Layer_1" data-name="Layer 1" xmlns="http://www.w3.org/2000/svg" xmlns:xlink="http://www.w3.org/1999/xlink" viewBox="0 0 960 960">
  <defs>
    <style>
      .cls-1 {
        fill: url(#linear-gradient);
      }

      .cls-1, .cls-2 {
        stroke-width: 0px;
      }
    </style>
    <linearGradient id="linear-gradient" x1="66.05" y1="415.48" x2="182.47" y2="546.74" gradientTransform="translate(0 962) scale(1 -1)" gradientUnits="userSpaceOnUse">
      <stop offset=".08" stop-color="#9945ff"/>
      <stop offset=".3" stop-color="#8752f3"/>
      <stop offset=".5" stop-color="#5497d5"/>
      <stop offset=".6" stop-color="#43b4ca"/>
      <stop offset=".72" stop-color="#28e0b9"/>
      <stop offset=".97" stop-color="#19fb9b"/>
    </linearGradient>
  </defs>
  <path class="cls-1" d="M195.22,516.65l-23.42,25.11c-1.03,1.1-2.46,1.73-3.97,1.73H56.79c-1.51,0-2.72-1.24-2.71-2.74,0-.68.26-1.33.72-1.83l23.39-25.11c1.03-1.1,2.46-1.73,3.97-1.73h111.04c1.5-.03,2.73,1.16,2.76,2.66.01.71-.25,1.4-.74,1.92M171.8,466.06c-1.03-1.09-2.46-1.72-3.97-1.73H56.79c-1.5,0-2.72,1.22-2.72,2.72,0,.69.26,1.35.73,1.85l23.39,25.13c1.03,1.09,2.46,1.72,3.97,1.73h111.04c1.51-.01,2.72-1.25,2.7-2.75,0-.67-.26-1.32-.72-1.82l-23.38-25.13ZM56.79,448.02h111.04c1.5,0,2.94-.63,3.97-1.73l23.42-25.12c1.03-1.1.97-2.82-.13-3.85-.12-.11-.25-.21-.39-.3-.45-.29-.97-.44-1.51-.42h-111.04c-1.5,0-2.94.63-3.97,1.73l-23.39,25.12c-1.02,1.1-.96,2.82.14,3.85.5.47,1.16.73,1.85.73"/>
  <path class="cls-2" d="M330.59,470.27h-59.4v-19.57h74.85v-19.55h-75.05c-10.78-.06-19.57,8.64-19.63,19.42v19.83c.04,10.78,8.82,19.48,19.6,19.44,0,0,.02,0,.03,0h59.49v19.57h-77.69v19.56h77.82c10.78.05,19.56-8.64,19.63-19.42v-19.83c-.04-10.78-8.82-19.48-19.6-19.44,0,0-.02,0-.03,0M445.66,431.14h-59.62c-10.78-.09-19.59,8.59-19.68,19.37,0,.02,0,.03,0,.05v58.98c.05,10.78,8.83,19.47,19.6,19.42.03,0,.05,0,.08,0h59.63c10.78.06,19.57-8.64,19.63-19.42h0v-58.98c-.03-7.9-4.83-15-12.15-17.97-2.37-.97-4.92-1.46-7.48-1.44h-.01ZM445.52,509.39h-59.34v-58.69h59.32l.02,58.69ZM654.52,431.14h-58.16c-10.78-.06-19.57,8.64-19.63,19.42v78.4h19.83v-32.13h57.89v32.13h19.83v-78.4c-.05-7.93-4.88-15.05-12.24-18.01-2.39-.96-4.95-1.44-7.52-1.41h0ZM654.37,477.26h-57.89v-26.56h57.89v26.56ZM886.04,431.14h-58.16c-10.78-.06-19.57,8.63-19.63,19.41h0v78.41h19.83v-32.13h57.76v32.13h19.83v-78.4c-.04-5.18-2.12-10.13-5.79-13.77-3.68-3.65-8.66-5.68-13.83-5.64M885.84,477.26h-57.89v-26.56h57.89v26.56ZM770.84,509.39h-7.93l-28.36-70.06c-1.97-4.96-6.77-8.2-12.11-8.2h-17.59c-7.18-.04-13.04,5.75-13.08,12.93,0,0,0,.01,0,.02v84.86h19.83v-78.26h7.93l28.34,70.06c2.02,4.94,6.83,8.15,12.16,8.14h17.59c7.18.04,13.04-5.75,13.08-12.93,0,0,0-.01,0-.02v-84.8h-19.86v78.25ZM502.63,431.14h-19.83v78.4c.05,10.78,8.83,19.47,19.61,19.42.03,0,.06,0,.09,0h59.48v-19.57h-59.34v-78.25Z"/>
</svg>