<?xml version="1.0" encoding="UTF-8"?>
<svg id="Layer_1" xmlns="http://www.w3.org/2000/svg" version="1.1" viewBox="0 0 948.35 394.63">
  <!-- Generator: Adobe Illustrator 30.1.0, SVG Export Plug-In . SVG Version: 2.1.1 Build 136)  -->
  <defs>
    <style>
      .st0 {
        fill: #6772e5;
      }
    </style>
  </defs>
  <path class="st0" d="M66.65,154.64c0-10.27,8.43-14.23,22.39-14.23,20.02,0,45.31,6.06,65.33,16.86v-61.91c-21.86-8.69-43.47-12.12-65.33-12.12C35.56,83.24,0,111.16,0,157.79c0,72.71,100.1,61.12,100.1,92.46,0,12.12-10.54,16.07-25.29,16.07-21.86,0-49.79-8.96-71.92-21.07v62.7c24.5,10.54,49.26,15.02,71.92,15.02,54.79,0,92.46-27.13,92.46-74.29-.26-78.5-100.63-64.54-100.63-94.04h.01ZM244.73,30.56l-64.28,13.7-.26,211.01c0,38.99,29.24,67.7,68.23,67.7,21.6,0,37.41-3.95,46.1-8.69v-53.48c-8.43,3.42-50.05,15.54-50.05-23.45v-93.52h50.05v-56.11h-50.05l.26-57.16ZM376.44,107.22l-4.21-19.49h-56.9v230.5h65.86v-156.21c15.54-20.28,41.89-16.6,50.05-13.7v-60.59c-8.43-3.16-39.25-8.96-54.79,19.49h-.01ZM447.31,87.73h66.12v230.5h-66.12V87.73h0ZM447.31,67.71l66.12-14.23V0l-66.12,13.96v53.74h0ZM650.94,83.25c-25.82,0-42.41,12.12-51.63,20.55l-3.42-16.33h-57.95v307.16l65.86-13.96.26-74.55c9.48,6.85,23.45,16.6,46.63,16.6,47.15,0,90.09-37.93,90.09-121.44-.26-76.39-43.73-118.02-89.83-118.02h-.01ZM635.13,264.75c-15.54,0-24.76-5.53-31.08-12.38l-.26-97.73c6.85-7.64,16.33-12.91,31.35-12.91,23.97,0,40.57,26.87,40.57,61.38s-16.33,61.64-40.57,61.64h0ZM948.35,203.9c0-67.44-32.67-120.65-95.1-120.65s-100.63,53.21-100.63,120.12c0,79.29,44.78,119.33,109.06,119.33,31.35,0,55.06-7.11,72.97-17.12v-52.69c-17.91,8.96-38.46,14.49-64.54,14.49s-48.21-8.96-51.11-40.04h128.82c0-3.42.53-17.12.53-23.45h0ZM818.22,178.87c0-29.77,18.18-42.15,34.77-42.15s33.19,12.38,33.19,42.15h-67.97.01Z"/>
</svg>